<?xml version="1.0" encoding="UTF-8" standalone="no"?>
<svg
   xmlns:dc="http://purl.org/dc/elements/1.1/"
   xmlns:cc="http://creativecommons.org/ns#"
   xmlns:rdf="http://www.w3.org/1999/02/22-rdf-syntax-ns#"
   xmlns:svg="http://www.w3.org/2000/svg"
   xmlns="http://www.w3.org/2000/svg"
   viewBox="0 0 536.03454 396.55051"
   height="396.55051"
   width="536.03455"
   xml:space="preserve"
   version="1.1"
   id="svg2"><metadata
     id="metadata8"><rdf:RDF><cc:Work
         rdf:about=""><dc:format>image/svg+xml</dc:format><dc:type
           rdf:resource="http://purl.org/dc/dcmitype/StillImage" /><dc:title></dc:title></cc:Work></rdf:RDF></metadata><defs
     id="defs6"><clipPath
       id="clipPath18"
       clipPathUnits="userSpaceOnUse"><path
         id="path20"
         d="m 0,1000 1500,0 L 1500,0 0,0 0,1000 Z" /></clipPath><clipPath
       id="clipPath3467"
       clipPathUnits="userSpaceOnUse"><rect
         transform="scale(1,-1)"
         y="-706.25958"
         x="129.27328"
         height="421.30435"
         width="466.44409"
         id="rect3469"
         style="fill:#ff0000" /></clipPath></defs><g
     clip-path="url(#clipPath3467)"
     style="fill:#ffffff"
     transform="matrix(1.25,0,0,-1.25,-208.61218,823.27539)"
     id="g10"><g
       style="fill:#ffffff"
       id="g14"><g
         style="fill:#ffffff"
         clip-path="url(#clipPath18)"
         id="g16"><g
           style="fill:#ffffff"
           transform="translate(178.3525,551.751)"
           id="g22"><path
             id="path24"
             style="fill:#ffffff;fill-opacity:1;fill-rule:nonzero;stroke:none"
             d="M 0,0 C 0,0 -18.562,52.311 89.997,41.623 L 83.81,11.812 75.373,21.374 C 75.373,21.374 15.187,29.812 0,0" /></g><g
           style="fill:#ffffff"
           transform="translate(585.5894,409.4424)"
           id="g26"><path
             id="path28"
             style="fill:#ffffff;fill-opacity:1;fill-rule:nonzero;stroke:none"
             d="m 0,0 c 0,0 -13.5,29.25 -43.311,49.499 l 2.25,19.687 6.187,-3.938 C -34.874,65.248 8.437,29.25 0,0" /></g><g
           style="fill:#ffffff"
           transform="translate(590.0894,403.8174)"
           id="g30"><path
             id="path32"
             style="fill:#ffffff;fill-opacity:1;fill-rule:nonzero;stroke:none"
             d="m 0,0 c 0,0 -9,-31.498 -91.685,-20.812 l -26.999,-0.562 -3.375,-9.562 7.312,-9 c 0,0 133.309,-25.312 114.747,39.936" /></g><g
           style="fill:#ffffff"
           transform="translate(168.7905,556.8125)"
           id="g34"><path
             id="path36"
             style="fill:#ffffff;fill-opacity:1;fill-rule:nonzero;stroke:none"
             d="m 0,0 c 0,0 -20.249,-33.748 71.435,-97.31 l 16.313,-2.249 -9.563,21.374 c 0,0 -62.997,39.374 -78.185,78.185" /></g><g
           style="fill:#ffffff"
           transform="translate(505.3257,387.0713)"
           id="g38"><path
             id="path40"
             transform="matrix(0.8,0,0,-0.8,-505.3257,612.9287)"
             d="m 492.45898,426.72461 c -109.50375,0 -198.27343,88.77039 -198.27343,198.27539 0,3.42625 0.0866,6.82719 0.25781,10.21094 8.975,6.7375 167.55164,115.64422 337.21289,130.94922 36.4625,-35.95375 59.08398,-85.90641 59.08398,-141.16016 0,-109.505 -88.77625,-198.27539 -198.28125,-198.27539 z m 10.63868,92.33984 27.57422,0 -46.53126,193.58985 -26.42187,-1.15039 45.37891,-192.43946 z m -57.44336,26.42578 0.57226,36.76368 -88.46289,33.89257 88.46289,35.04102 -0.57226,36.19141 -128.09961,-54.57032 0.57422,-32.17187 127.52539,-55.14649 z m 96.50586,0 127.52734,55.14649 0.57031,32.17187 -128.09765,54.57032 -0.57422,-36.19141 88.46484,-35.04102 -88.46484,-33.89257 0.57422,-36.76368 z"
             style="fill:#ffffff;fill-opacity:1;fill-rule:nonzero;stroke:none" /></g><g
           style="fill:#ffffff"
           transform="translate(498.4048,383.0059)"
           id="g42"><path
             id="path44"
             style="fill:#ffffff;fill-opacity:1;fill-rule:nonzero;stroke:none"
             d="m 0,0 c 0,0 -127.847,9.293 -262.385,102.715 7.223,-80.909 75.161,-144.341 157.948,-144.341 41.239,0 78.795,15.743 107.005,41.541 L 0,0 Z" /></g><g
           style="fill:#ffffff"
           transform="translate(356.5234,563.6084)"
           id="g46" /><g
           style="fill:#ffffff"
           transform="translate(433.728,563.6084)"
           id="g50" /><g
           style="fill:#ffffff"
           transform="translate(402.4775,584.748)"
           id="g54" /><g
           style="fill:#ffffff"
           transform="translate(648.814,474.6484)"
           id="g58"><path
             id="path60"
             style="fill:#ffffff;fill-opacity:1;fill-rule:nonzero;stroke:none"
             d="m 0,0 -17.564,0 0,70.447 -26.473,0 0,17.626 70.447,0 0,-17.626 L 0,70.447 0,0 Z" /></g><g
           style="fill:#ffffff"
           transform="translate(699.5444,474.6484)"
           id="g62"><path
             id="path64"
             style="fill:#ffffff;fill-opacity:1;fill-rule:nonzero;stroke:none"
             d="m 0,0 -16.767,0 0,91.944 16.767,0 0,-29.051 c 2.006,1.514 4.074,2.588 6.203,3.225 2.129,0.633 4.3,0.949 6.51,0.949 4.054,0 7.862,-0.766 11.423,-2.302 3.564,-1.534 6.664,-3.643 9.305,-6.326 2.642,-2.682 4.728,-5.816 6.265,-9.397 1.536,-3.582 2.304,-7.4 2.304,-11.452 l 0,-37.59 -16.889,0 0,37.59 0.123,0 c 0,1.718 -0.33,3.345 -0.985,4.882 -0.655,1.534 -1.555,2.875 -2.702,4.021 -1.147,1.148 -2.476,2.048 -3.993,2.702 -1.514,0.656 -3.131,0.985 -4.851,0.985 -1.76,0 -3.419,-0.329 -4.974,-0.985 C 6.183,48.541 4.832,47.641 3.685,46.493 2.538,45.347 1.637,44.006 0.982,42.472 0.327,40.935 0,39.308 0,37.59 L 0,0 Z" /></g><g
           style="fill:#ffffff"
           transform="translate(788.2295,525.3203)"
           id="g66"><path
             id="path68"
             style="fill:#ffffff;fill-opacity:1;fill-rule:nonzero;stroke:none"
             d="m 0,0 c -0.777,0.286 -1.544,0.471 -2.303,0.55 -0.759,0.083 -1.547,0.123 -2.364,0.123 -2.294,0 -4.453,-0.418 -6.479,-1.257 -2.029,-0.84 -3.789,-2.039 -5.283,-3.595 -1.496,-1.555 -2.672,-3.427 -3.53,-5.621 -0.862,-2.188 -1.29,-4.657 -1.29,-7.399 0,-0.612 0.03,-1.31 0.092,-2.088 0.059,-0.777 0.162,-1.565 0.305,-2.364 0.143,-0.8 0.317,-1.565 0.524,-2.302 0.203,-0.738 0.47,-1.394 0.798,-1.965 L 0,0 Z m -8.598,-34.579 c 0.655,-0.207 1.31,-0.338 1.964,-0.4 0.655,-0.062 1.31,-0.092 1.967,-0.092 1.637,0 3.213,0.224 4.729,0.676 1.513,0.449 2.937,1.095 4.269,1.934 1.328,0.839 2.518,1.862 3.562,3.071 1.043,1.208 1.893,2.548 2.548,4.021 l 12.285,-12.343 c -1.558,-2.211 -3.349,-4.197 -5.375,-5.955 -2.029,-1.762 -4.219,-3.256 -6.572,-4.486 -2.355,-1.227 -4.831,-2.158 -7.431,-2.795 -2.601,-0.633 -5.273,-0.95 -8.015,-0.95 -4.627,0 -8.979,0.858 -13.052,2.58 -4.076,1.718 -7.637,4.114 -10.686,7.184 -3.051,3.072 -5.456,6.724 -7.216,10.964 -1.762,4.236 -2.641,8.895 -2.641,13.971 0,5.198 0.879,9.949 2.641,14.251 1.76,4.298 4.165,7.963 7.216,10.992 3.049,3.03 6.61,5.384 10.686,7.064 4.073,1.679 8.425,2.518 13.052,2.518 2.742,0 5.425,-0.329 8.046,-0.984 2.619,-0.656 5.106,-1.595 7.463,-2.826 2.352,-1.225 4.554,-2.733 6.602,-4.513 2.044,-1.78 3.847,-3.777 5.402,-5.99 L -8.598,-34.579 Z" /></g><g
           style="fill:#ffffff"
           transform="translate(874.0889,545.0957)"
           id="g70"><path
             id="path72"
             style="fill:#ffffff;fill-opacity:1;fill-rule:nonzero;stroke:none"
             d="m 0,0 0,-35.252 17.626,0 c 2.417,0 4.688,0.457 6.818,1.38 2.128,0.923 3.993,2.18 5.589,3.779 1.598,1.595 2.858,3.467 3.778,5.615 0.92,2.154 1.381,4.435 1.381,6.852 0,2.412 -0.461,4.697 -1.381,6.847 -0.92,2.148 -2.18,4.022 -3.778,5.62 -1.596,1.595 -3.461,2.856 -5.589,3.777 C 22.314,-0.462 20.043,0 17.626,0 L 0,0 Z m 0,-70.447 -17.625,0 0,88.073 35.251,0 c 3.235,0 6.347,-0.42 9.335,-1.26 2.988,-0.839 5.783,-2.025 8.385,-3.561 2.6,-1.535 4.975,-3.379 7.124,-5.529 2.149,-2.148 3.992,-4.535 5.527,-7.153 1.537,-2.622 2.723,-5.428 3.563,-8.416 0.838,-2.988 1.258,-6.099 1.258,-9.333 0,-4.834 -0.92,-9.387 -2.763,-13.667 -1.841,-4.28 -4.36,-8.016 -7.554,-11.21 -3.193,-3.19 -6.931,-5.708 -11.208,-7.555 -4.28,-1.84 -8.836,-2.763 -13.667,-2.763 l -17.626,0 0,-17.626 z" /></g><g
           style="fill:#ffffff"
           transform="translate(982.1221,508.1211)"
           id="g74"><path
             id="path76"
             style="fill:#ffffff;fill-opacity:1;fill-rule:nonzero;stroke:none"
             d="m 0,0 c 0,2.702 -0.439,5.15 -1.318,7.339 -0.883,2.192 -2.078,4.073 -3.594,5.651 -1.517,1.577 -3.288,2.785 -5.313,3.625 -2.028,0.839 -4.188,1.257 -6.48,1.257 -2.293,0 -4.453,-0.418 -6.48,-1.257 -2.028,-0.84 -3.788,-2.048 -5.282,-3.625 -1.496,-1.578 -2.672,-3.459 -3.53,-5.651 C -32.858,5.15 -33.286,2.702 -33.286,0 c 0,-2.54 0.428,-4.891 1.289,-7.062 0.858,-2.17 2.034,-4.051 3.53,-5.651 1.494,-1.596 3.254,-2.857 5.282,-3.775 2.027,-0.923 4.187,-1.384 6.48,-1.384 2.292,0 4.452,0.431 6.48,1.292 2.025,0.856 3.796,2.065 5.313,3.621 1.516,1.555 2.711,3.441 3.594,5.651 C -0.439,-5.098 0,-2.658 0,0 m 16.892,0 c 0,-4.913 -0.882,-9.488 -2.641,-13.724 -1.762,-4.24 -4.157,-7.906 -7.189,-10.995 -3.028,-3.093 -6.579,-5.527 -10.652,-7.307 -4.078,-1.785 -8.447,-2.673 -13.115,-2.673 -4.627,0 -8.978,0.888 -13.051,2.673 -4.076,1.78 -7.638,4.214 -10.687,7.307 -3.05,3.089 -5.455,6.755 -7.215,10.995 -1.763,4.236 -2.641,8.811 -2.641,13.724 0,4.996 0.878,9.623 2.641,13.882 1.76,4.258 4.165,7.931 7.215,11.025 3.049,3.089 6.611,5.515 10.687,7.278 4.073,1.757 8.424,2.64 13.051,2.64 4.668,0 9.037,-0.83 13.115,-2.487 C 0.483,30.68 4.034,28.324 7.062,25.274 10.094,22.222 12.489,18.558 14.251,14.281 16.01,10.002 16.892,5.242 16.892,0" /></g><path
           id="path78"
           style="fill:#ffffff;fill-opacity:1;fill-rule:nonzero;stroke:none"
           d="m 1025.175,474.648 -16.889,0 0,91.944 16.889,0 0,-91.944 z" /><g
           style="fill:#ffffff"
           transform="translate(1053.7949,449.5918)"
           id="g80"><path
             id="path82"
             style="fill:#ffffff;fill-opacity:1;fill-rule:nonzero;stroke:none"
             d="m 0,0 0,16.888 9.339,-0.123 c 1.635,0 3.212,0.267 4.727,0.799 1.512,0.532 2.918,1.271 4.206,2.211 1.291,0.945 2.425,2.056 3.41,3.349 0.98,1.287 1.78,2.693 2.395,4.205 -1.842,-0.778 -3.718,-1.556 -5.62,-2.334 -1.903,-0.777 -3.819,-1.165 -5.744,-1.165 -4.051,0 -7.862,0.718 -11.421,2.149 -3.564,1.433 -6.688,3.472 -9.369,6.114 -2.681,2.64 -4.789,5.853 -6.323,9.641 -1.538,3.787 -2.303,8.033 -2.303,12.744 l 0,36.359 16.703,0 0,-36.359 c 0,-2.333 0.339,-4.373 1.016,-6.114 0.671,-1.74 1.586,-3.194 2.733,-4.358 1.143,-1.17 2.486,-2.039 4.02,-2.611 1.539,-0.576 3.182,-0.861 4.944,-0.861 1.723,0 3.349,0.401 4.883,1.2 1.537,0.794 2.878,1.85 4.025,3.163 1.147,1.31 2.048,2.791 2.702,4.453 0.655,1.656 0.981,3.366 0.981,5.128 l 0,36.359 16.891,0 0,-57.488 C 42.151,28.722 41.25,24.385 39.492,20.329 37.73,16.277 35.326,12.735 32.277,9.703 29.223,6.675 25.673,4.28 21.621,2.519 17.564,0.756 13.227,-0.123 8.6,-0.123 L 0,0 Z" /></g><g
           style="fill:#ffffff"
           transform="translate(1155.5645,508.1211)"
           id="g84"><path
             id="path86"
             style="fill:#ffffff;fill-opacity:1;fill-rule:nonzero;stroke:none"
             d="m 0,0 c 0,2.294 -0.439,4.518 -1.318,6.666 -0.883,2.148 -2.078,4.052 -3.594,5.708 -1.517,1.661 -3.288,2.993 -5.314,3.995 -2.026,1.002 -4.187,1.503 -6.477,1.503 -2.294,0 -4.455,-0.387 -6.482,-1.165 -2.025,-0.777 -3.788,-1.925 -5.282,-3.44 -1.494,-1.517 -2.672,-3.388 -3.528,-5.621 -0.861,-2.232 -1.292,-4.781 -1.292,-7.646 0,-2.742 0.431,-5.212 1.292,-7.4 0.856,-2.188 2.034,-4.065 3.528,-5.621 1.494,-1.556 3.257,-2.75 5.282,-3.59 2.027,-0.839 4.188,-1.261 6.482,-1.261 2.29,0 4.451,0.501 6.477,1.508 2.026,1.001 3.797,2.333 5.314,3.989 1.516,1.656 2.711,3.563 3.594,5.713 C -0.439,-4.514 0,-2.294 0,0 m 16.892,-25.181 c 0,-4.627 -0.883,-8.964 -2.641,-13.019 -1.762,-4.052 -4.171,-7.594 -7.22,-10.626 -3.049,-3.028 -6.608,-5.423 -10.682,-7.185 -4.078,-1.762 -8.429,-2.641 -13.052,-2.641 l -8.415,0.123 0,16.764 8.292,-0.118 c 2.62,0 4.851,0.334 6.692,1.01 1.842,0.678 3.398,1.596 4.668,2.765 1.27,1.169 2.284,2.508 3.041,4.021 0.755,1.516 1.362,3.111 1.81,4.794 -0.656,-1.068 -1.595,-1.938 -2.826,-2.611 -1.225,-0.676 -2.587,-1.231 -4.081,-1.66 -1.495,-0.431 -3.05,-0.726 -4.667,-0.888 -1.618,-0.163 -3.125,-0.247 -4.514,-0.247 -4.627,0 -8.978,0.796 -13.051,2.395 -4.078,1.596 -7.638,3.876 -10.687,6.847 -3.049,2.971 -5.458,6.604 -7.215,10.902 -1.763,4.298 -2.642,9.15 -2.642,14.555 0,4.957 0.879,9.562 2.642,13.82 1.757,4.259 4.166,7.941 7.215,11.057 3.049,3.11 6.609,5.545 10.687,7.308 4.073,1.757 8.424,2.64 13.051,2.64 2.128,0 4.236,-0.267 6.323,-0.8 2.088,-0.531 4.118,-1.269 6.082,-2.21 1.965,-0.943 3.837,-2.047 5.62,-3.317 1.781,-1.27 3.447,-2.642 5.005,-4.113 l 6.509,7.8 4.056,0 0,-57.366 z" /></g><path
           id="path88"
           style="fill:#ffffff;fill-opacity:1;fill-rule:nonzero;stroke:none"
           d="m 1202.119,474.648 -16.892,0 0,91.944 16.892,0 0,-91.944 z" /><g
           style="fill:#ffffff"
           transform="translate(1261.5703,508.1211)"
           id="g90"><path
             id="path92"
             style="fill:#ffffff;fill-opacity:1;fill-rule:nonzero;stroke:none"
             d="m 0,0 c 0,2.702 -0.443,5.15 -1.323,7.339 -0.879,2.192 -2.077,4.073 -3.59,5.651 -1.516,1.577 -3.287,2.785 -5.313,3.625 -2.03,0.839 -4.187,1.257 -6.481,1.257 -2.294,0 -4.451,-0.418 -6.478,-1.257 -2.03,-0.84 -3.788,-2.048 -5.282,-3.625 -1.498,-1.578 -2.672,-3.459 -3.532,-5.651 C -32.861,5.15 -33.287,2.702 -33.287,0 c 0,-2.54 0.426,-4.891 1.288,-7.062 0.86,-2.17 2.034,-4.051 3.532,-5.651 1.494,-1.596 3.252,-2.857 5.282,-3.775 2.027,-0.923 4.184,-1.384 6.478,-1.384 2.294,0 4.451,0.431 6.481,1.292 2.026,0.856 3.797,2.065 5.313,3.621 1.513,1.555 2.711,3.441 3.59,5.651 C -0.443,-5.098 0,-2.658 0,0 m 16.888,0 c 0,-4.913 -0.88,-9.488 -2.642,-13.724 -1.762,-4.24 -4.156,-7.906 -7.184,-10.995 -3.033,-3.093 -6.583,-5.527 -10.657,-7.307 -4.073,-1.785 -8.446,-2.673 -13.112,-2.673 -4.627,0 -8.978,0.888 -13.052,2.673 -4.073,1.78 -7.637,4.214 -10.686,7.307 -3.05,3.089 -5.454,6.755 -7.216,10.995 -1.762,4.236 -2.642,8.811 -2.642,13.724 0,4.996 0.88,9.623 2.642,13.882 1.762,4.258 4.166,7.931 7.216,11.025 3.049,3.089 6.613,5.515 10.686,7.278 4.074,1.757 8.425,2.64 13.052,2.64 4.666,0 9.039,-0.83 13.112,-2.487 C 0.479,30.68 4.029,28.324 7.062,25.274 10.09,22.222 12.484,18.558 14.246,14.281 16.008,10.002 16.888,5.242 16.888,0" /></g><g
           style="fill:#ffffff"
           transform="translate(1320.2227,474.6484)"
           id="g94"><path
             id="path96"
             style="fill:#ffffff;fill-opacity:1;fill-rule:nonzero;stroke:none"
             d="m 0,0 c -4.052,0 -7.862,0.77 -11.426,2.304 -3.559,1.537 -6.684,3.646 -9.364,6.327 -2.681,2.681 -4.79,5.806 -6.324,9.365 -1.537,3.564 -2.307,7.369 -2.307,11.425 l 0,19.528 -8.164,0 0,16.708 8.164,0 0,26.287 16.707,0 0,-26.287 25.426,0 0,-16.708 -25.426,0 0,-19.528 c 0,-1.762 0.326,-3.41 0.985,-4.943 0.65,-1.54 1.555,-2.879 2.698,-4.026 1.147,-1.147 2.501,-2.056 4.055,-2.733 1.557,-0.673 3.214,-1.012 4.976,-1.012 l 12.712,0 L 12.712,0 0,0 Z" /></g><g
           style="fill:#ffffff"
           transform="translate(775.5068,391.4805)"
           id="g98"><path
             id="path100"
             style="fill:#ffffff;fill-opacity:1;fill-rule:nonzero;stroke:none"
             d="m 0,0 6.575,0 c 7.868,0 13.342,0.483 16.417,1.459 4.282,1.385 7.653,3.889 10.114,7.519 2.46,3.626 3.691,8.069 3.691,13.324 0,5.51 -1.326,10.213 -3.979,14.11 -2.655,3.898 -6.363,6.562 -11.131,7.997 -3.59,1.104 -9.474,1.653 -17.65,1.653 L 0,46.062 0,0 Z m -5.462,-5.423 0,57.022 11.807,0 c 8.536,0 14.738,-0.69 18.61,-2.074 5.51,-1.924 9.823,-5.278 12.939,-10.054 3.113,-4.782 4.67,-10.481 4.67,-17.095 0,-5.69 -1.236,-10.713 -3.71,-15.072 C 36.38,2.944 33.177,-0.264 29.241,-2.329 25.307,-4.39 19.788,-5.423 12.688,-5.423 l -18.15,0 z" /></g><g
           style="fill:#ffffff"
           transform="translate(863.6748,412.165)"
           id="g102"><path
             id="path104"
             style="fill:#ffffff;fill-opacity:1;fill-rule:nonzero;stroke:none"
             d="m 0,0 c -0.719,2.896 -1.769,5.212 -3.153,6.942 -1.385,1.728 -3.217,3.125 -5.499,4.19 -2.282,1.062 -4.679,1.599 -7.19,1.599 -4.129,0 -7.678,-1.336 -10.652,-4 C -28.647,6.78 -30.275,3.872 -31.376,0 L 0,0 Z m 0,-11.342 4.537,-2.421 c -1.461,-2.949 -3.18,-5.322 -5.153,-7.115 -1.976,-1.793 -4.192,-3.159 -6.654,-4.095 -2.459,-0.936 -5.241,-1.402 -8.341,-1.402 -6.87,0 -12.241,2.249 -16.113,6.745 -3.869,4.5 -5.804,9.579 -5.804,15.249 0,5.357 1.638,10.124 4.922,14.304 4.152,5.33 9.728,7.997 16.725,7.997 C -8.728,17.92 -3,15.191 1.307,9.729 4.356,5.885 5.895,1.09 5.921,-4.649 l -37.872,0 c 0.1,-4.922 1.665,-8.955 4.688,-12.094 3.026,-3.142 6.753,-4.711 11.191,-4.711 2.153,0 4.242,0.379 6.267,1.135 2.025,0.756 3.749,1.748 5.171,2.979 1.424,1.231 2.966,3.23 4.634,5.998" /></g><g
           style="fill:#ffffff"
           transform="translate(875.71,427.9316)"
           id="g106"><path
             id="path108"
             style="fill:#ffffff;fill-opacity:1;fill-rule:nonzero;stroke:none"
             d="M 0,0 5.766,0 19.878,-30.686 33.875,0 l 5.807,0 -19.305,-42.181 -0.959,0 L 0,0 Z" /></g><g
           style="fill:#ffffff"
           transform="translate(959.1484,412.165)"
           id="g110"><path
             id="path112"
             style="fill:#ffffff;fill-opacity:1;fill-rule:nonzero;stroke:none"
             d="m 0,0 c -0.718,2.896 -1.769,5.212 -3.152,6.942 -1.385,1.728 -3.217,3.125 -5.5,4.19 -2.281,1.062 -4.678,1.599 -7.19,1.599 -4.128,0 -7.676,-1.336 -10.651,-4 C -28.646,6.78 -30.274,3.872 -31.376,0 L 0,0 Z m 0,-11.342 4.537,-2.421 c -1.461,-2.949 -3.179,-5.322 -5.151,-7.115 -1.976,-1.793 -4.193,-3.159 -6.654,-4.095 -2.461,-0.936 -5.243,-1.402 -8.342,-1.402 -6.871,0 -12.242,2.249 -16.114,6.745 -3.868,4.5 -5.804,9.579 -5.804,15.249 0,5.357 1.639,10.124 4.923,14.304 4.152,5.33 9.729,7.997 16.724,7.997 7.154,0 12.883,-2.729 17.19,-8.191 C 4.357,5.885 5.896,1.09 5.922,-4.649 l -37.873,0 c 0.1,-4.922 1.665,-8.955 4.688,-12.094 3.026,-3.142 6.755,-4.711 11.191,-4.711 2.153,0 4.243,0.379 6.268,1.135 2.024,0.756 3.749,1.748 5.171,2.979 1.424,1.231 2.965,3.23 4.633,5.998" /></g><path
           id="path114"
           style="fill:#ffffff;fill-opacity:1;fill-rule:nonzero;stroke:none"
           d="m 974.336,444.311 5.463,0 0,-58.481 -5.463,0 0,58.481 z" /><g
           style="fill:#ffffff"
           transform="translate(1010.9414,424.7773)"
           id="g116"><path
             id="path118"
             style="fill:#ffffff;fill-opacity:1;fill-rule:nonzero;stroke:none"
             d="m 0,0 c -4.482,0 -8.341,-1.666 -11.571,-4.997 -3.23,-3.335 -4.847,-7.36 -4.847,-12.076 0,-3.049 0.737,-5.902 2.21,-8.555 1.477,-2.65 3.468,-4.689 5.981,-6.113 2.514,-1.424 5.256,-2.132 8.227,-2.132 3.027,0 5.787,0.708 8.287,2.132 2.501,1.424 4.479,3.463 5.942,6.113 1.459,2.653 2.192,5.506 2.192,8.555 0,4.716 -1.616,8.741 -4.847,12.076 C 8.345,-1.666 4.486,0 0,0 m 0,5.308 c 6.485,0 11.869,-2.347 16.148,-7.036 3.873,-4.305 5.811,-9.399 5.811,-15.265 0,-5.871 -2.053,-11.003 -6.152,-15.403 -4.106,-4.395 -9.369,-6.591 -15.807,-6.591 -6.46,0 -11.733,2.196 -15.82,6.591 -4.091,4.4 -6.134,9.532 -6.134,15.403 0,5.844 1.937,10.92 5.805,15.226 4.284,4.714 9.667,7.075 16.149,7.075" /></g><g
           style="fill:#ffffff"
           transform="translate(1051.9707,419.8203)"
           id="g120"><path
             id="path122"
             style="fill:#ffffff;fill-opacity:1;fill-rule:nonzero;stroke:none"
             d="m 0,0 c -3.229,-3.283 -4.846,-7.374 -4.846,-12.27 0,-3.177 0.716,-6.054 2.153,-8.629 1.437,-2.577 3.485,-4.615 6.153,-6.114 2.667,-1.503 5.483,-2.25 8.458,-2.25 2.922,0 5.674,0.747 8.249,2.25 2.574,1.499 4.627,3.613 6.151,6.342 1.526,2.733 2.29,5.58 2.29,8.555 0,3.023 -0.76,5.871 -2.272,8.539 -1.512,2.663 -3.542,4.746 -6.095,6.248 -2.549,1.5 -5.347,2.251 -8.397,2.251 C 7.177,4.922 3.23,3.277 0,0 m 2.633,8.129 c 3.011,1.318 6.236,1.981 9.672,1.981 5.999,0 11.122,-2.151 15.381,-6.458 4.252,-4.306 6.38,-9.497 6.38,-15.575 0,-6.178 -2.114,-11.433 -6.345,-15.763 -4.228,-4.332 -9.316,-6.499 -15.263,-6.499 -3.361,0 -6.45,0.687 -9.267,2.057 -2.821,1.371 -5.37,3.454 -7.65,6.249 l 0,-23.531 -5.384,0 0,39.949 c 0.461,3.717 1.846,7.496 4.154,11.342 2.535,2.848 5.307,4.931 8.322,6.248" /></g><g
           style="fill:#ffffff"
           transform="translate(1132.4072,412.165)"
           id="g124"><path
             id="path126"
             style="fill:#ffffff;fill-opacity:1;fill-rule:nonzero;stroke:none"
             d="m 0,0 c -0.718,2.896 -1.768,5.212 -3.152,6.942 -1.385,1.728 -3.216,3.125 -5.501,4.19 -2.282,1.062 -4.677,1.599 -7.19,1.599 -4.127,0 -7.677,-1.336 -10.651,-4 C -28.647,6.78 -30.274,3.872 -31.377,0 L 0,0 Z m 0,-11.342 4.539,-2.421 c -1.465,-2.949 -3.182,-5.322 -5.155,-7.115 -1.974,-1.793 -4.193,-3.159 -6.654,-4.095 -2.459,-0.936 -5.242,-1.402 -8.34,-1.402 -6.872,0 -12.243,2.249 -16.114,6.745 -3.868,4.5 -5.805,9.579 -5.805,15.249 0,5.357 1.639,10.124 4.922,14.304 4.152,5.33 9.729,7.997 16.725,7.997 7.153,0 12.884,-2.729 17.191,-8.191 C 4.357,5.885 5.896,1.09 5.922,-4.649 l -37.874,0 c 0.1,-4.922 1.665,-8.955 4.687,-12.094 3.029,-3.142 6.755,-4.711 11.194,-4.711 2.152,0 4.241,0.379 6.266,1.135 2.026,0.756 3.748,1.748 5.172,2.979 1.424,1.231 2.967,3.23 4.633,5.998" /></g><g
           style="fill:#ffffff"
           transform="translate(1146.3633,405.1299)"
           id="g128"><path
             id="path130"
             style="fill:#ffffff;fill-opacity:1;fill-rule:nonzero;stroke:none"
             d="m 0,0 0,5.075 c 0.412,2.54 1.001,4.602 1.771,6.192 1.792,4.408 4.206,7.637 7.228,9.689 3.023,2.049 5.538,3.076 7.536,3.076 1.486,0 3.077,-0.487 4.769,-1.463 L 18.495,18.034 C 16.113,18.904 13.749,18.202 11.403,15.92 9.057,13.636 7.435,11.153 6.538,8.459 5.871,6.077 5.537,1.6 5.537,-4.962 l 0,-14.264 -5.537,0 L 0,0 Z" /></g><path
           id="path132"
           style="fill:#ffffff;fill-opacity:1;fill-rule:nonzero;stroke:none"
           d="m 757,410 -153,0 0,4 153,0 0,-4 z" /><path
           id="path134"
           style="fill:#ffffff;fill-opacity:1;fill-rule:nonzero;stroke:none"
           d="m 1333,410 -153,0 0,4 153,0 0,-4 z" /></g></g></g></svg>